<?xml version="1.0" encoding="iso-8859-1"?>
<!-- Generator: Adobe Illustrator 19.0.0, SVG Export Plug-In . SVG Version: 6.00 Build 0)  -->
<svg version="1.1" id="Layer_1" xmlns="http://www.w3.org/2000/svg" xmlns:xlink="http://www.w3.org/1999/xlink" x="0px" y="0px"
	 viewBox="0 0 511.996 511.996" style="enable-background:new 0 0 511.996 511.996;" xml:space="preserve">
<circle style="fill:#3C3B41;" cx="255.998" cy="255.996" r="255.996"/>
<path style="fill:#171719;" d="M508.676,297.314c-19.748,121.739-125.355,214.682-252.674,214.682
	c-6.531,0-13.009-0.24-19.414-0.721L110.387,385.074c-6.363-4.754-10.501-12.34-10.501-20.845v-6.698
	c0-14.095,11.368-25.662,25.391-25.986c2.675-4.765,5.945-11.64,9.644-21.556c7.763-20.835,6.969-71.721,6.248-92.953
	c-0.261-3.145-0.397-6.332-0.397-9.55c0-54.261,37.511-99.765,88.021-111.991c-0.157-1.181-0.261-2.372-0.261-3.584
	c0-15.172,12.298-27.47,27.47-27.47c8.944,0,16.896,4.284,21.911,10.898l29.246,28.891c12.486,6.207,23.698,14.587,33.123,24.68
	L508.676,297.314z"/>
<path style="fill:#E67500;" d="M255.998,444.256c33.538,0,60.904-26.404,62.456-59.558H193.541
	C195.094,417.852,222.459,444.256,255.998,444.256z"/>
<path style="fill:#C06100;" d="M256.002,444.256c33.537-0.002,60.9-26.405,62.453-59.558h-62.453V444.256L256.002,444.256z"/>
<path style="fill:#FF9A00;" d="M241.863,91.909c0-7.808,6.33-14.138,14.138-14.138s14.138,6.33,14.138,14.138
	c0,2.148-0.493,4.176-1.35,6.001c4.545,0.523,9.007,1.321,13.367,2.377c0.845-2.643,1.311-5.454,1.311-8.378
	c0-15.17-12.297-27.467-27.467-27.467s-27.468,12.297-27.468,27.467c0,2.924,0.466,5.735,1.311,8.378
	c4.361-1.056,8.822-1.855,13.367-2.377C242.356,96.085,241.863,94.057,241.863,91.909z"/>
<path style="fill:#E67500;" d="M270.14,91.909c0,2.148-0.493,4.176-1.35,6.001c4.545,0.523,9.007,1.321,13.367,2.377
	c0.845-2.643,1.311-5.454,1.311-8.378c0-15.17-12.297-27.467-27.467-27.467v13.329C263.81,77.771,270.14,84.101,270.14,91.909z"/>
<path style="fill:#FFB74F;" d="M377.086,309.989c-7.771-20.833-6.968-71.722-6.246-92.953c0.258-3.149,0.396-6.333,0.396-9.549
	c0-63.642-51.592-115.234-115.234-115.234s-115.234,51.592-115.234,115.234c0,3.216,0.138,6.401,0.397,9.55
	c0.721,21.232,1.523,72.119-6.247,92.952c-10.254,27.49-17.235,31.751-17.235,31.751h276.64
	C394.322,341.739,387.34,337.478,377.086,309.989z"/>
<path style="fill:#FFCF00;" d="M377.086,309.989c-7.771-20.833-6.968-71.722-6.246-92.953c0.258-3.149,0.396-6.333,0.396-9.549
	c0-63.642-51.592-115.234-115.234-115.234s-115.234,51.592-115.234,115.234c0,3.216,0.138,6.401,0.397,9.55
	c0.721,21.232,1.523,72.119-6.247,92.952c-10.254,27.49-17.235,31.751-17.235,31.751h276.64
	C394.322,341.739,387.34,337.478,377.086,309.989z"/>
<path style="fill:#FEC000;" d="M394.322,341.739c0,0-6.982-4.261-17.235-31.751c-7.771-20.833-6.968-71.722-6.246-92.953
	c0.258-3.149,0.397-6.333,0.397-9.549c0-63.642-51.592-115.234-115.234-115.234v249.487H394.322z"/>
<path style="fill:#FFA91F;" d="M385.293,390.232H126.71c-14.754,0-26.825-12.072-26.825-26.825v-5.053
	c0-14.754,12.072-26.825,26.825-26.825h258.582c14.754,0,26.825,12.072,26.825,26.825v5.053
	C412.118,378.162,400.047,390.232,385.293,390.232z"/>
<path style="fill:#FF8800;" d="M385.476,331.53H256.002v58.704h129.475c14.653,0,26.641-11.989,26.641-26.641v-5.42
	C412.118,343.519,400.129,331.53,385.476,331.53z"/>
<g>
</g>
<g>
</g>
<g>
</g>
<g>
</g>
<g>
</g>
<g>
</g>
<g>
</g>
<g>
</g>
<g>
</g>
<g>
</g>
<g>
</g>
<g>
</g>
<g>
</g>
<g>
</g>
<g>
</g>
</svg>
